<?xml version="1.0" encoding="UTF-8" standalone="no"?>
<!-- Created with Inkscape (http://www.inkscape.org/) -->

<svg
   xmlns:dc="http://purl.org/dc/elements/1.1/"
   xmlns:cc="http://creativecommons.org/ns#"
   xmlns:rdf="http://www.w3.org/1999/02/22-rdf-syntax-ns#"
   xmlns:svg="http://www.w3.org/2000/svg"
   xmlns="http://www.w3.org/2000/svg"
   xmlns:sodipodi="http://sodipodi.sourceforge.net/DTD/sodipodi-0.dtd"
   xmlns:inkscape="http://www.inkscape.org/namespaces/inkscape"
   width="210mm"
   height="297mm"
   viewBox="0 0 210 297"
   version="1.1"
   id="svg8"
   inkscape:version="0.92.2 (5c3e80d, 2017-08-06)"
   sodipodi:docname="drawing.svg">
  <defs
     id="defs2" />
  <sodipodi:namedview
     id="base"
     pagecolor="#ffffff"
     bordercolor="#666666"
     borderopacity="1.0"
     inkscape:pageopacity="0.0"
     inkscape:pageshadow="2"
     inkscape:zoom="0.35355339"
     inkscape:cx="969.47582"
     inkscape:cy="304.63693"
     inkscape:document-units="mm"
     inkscape:current-layer="layer1"
     showgrid="false"
     inkscape:snap-global="true"
     inkscape:window-width="1920"
     inkscape:window-height="1016"
     inkscape:window-x="0"
     inkscape:window-y="27"
     inkscape:window-maximized="1" />
  <metadata
     id="metadata5">
    <rdf:RDF>
      <cc:Work
         rdf:about="">
        <dc:format>image/svg+xml</dc:format>
        <dc:type
           rdf:resource="http://purl.org/dc/dcmitype/StillImage" />
        <dc:title></dc:title>
      </cc:Work>
    </rdf:RDF>
  </metadata>
  <g
     inkscape:label="Layer 1"
     inkscape:groupmode="layer"
     id="layer1">
    <rect
       style="opacity:0.98999999;fill:#00ffff;fill-opacity:1;stroke:none;stroke-width:10;stroke-linecap:round;stroke-linejoin:bevel;stroke-miterlimit:4;stroke-dasharray:none;stroke-opacity:1;paint-order:stroke fill markers"
       id="rect901"
       width="513.29169"
       height="301.625"
       x="-147.10834"
       y="-1.4500015" />
    <g
       id="g939">
      <rect
         inkscape:export-ydpi="90"
         inkscape:export-xdpi="90"
         y="29.438534"
         x="37.828674"
         height="68"
         width="68"
         id="rect897"
         style="opacity:0.98999999;fill:#ffffff;fill-opacity:1;stroke:none;stroke-width:10.12418938;stroke-linecap:round;stroke-linejoin:bevel;stroke-miterlimit:4;stroke-dasharray:none;stroke-opacity:1;paint-order:stroke fill markers" />
      <circle
         r="27.898064"
         cy="63.438534"
         cx="71.828674"
         id="path883"
         style="opacity:0.98999999;fill:#ffffff;fill-opacity:1;stroke:#5da8dc;stroke-width:4.12576151;stroke-linecap:round;stroke-linejoin:bevel;stroke-miterlimit:4;stroke-dasharray:none;stroke-opacity:1;paint-order:stroke fill markers" />
      <path
         id="path865"
         d="m 89.063743,51.805803 v -0.009 h 2.30105 l 0.84077,0.16815 c 0.56052,0.10916 1.06941,0.25223 1.52665,0.42923 0.45729,0.177 0.8998,0.38352 1.327531,0.61951 0.427774,0.23599 0.815721,0.47645 1.163843,0.72129 0.345157,0.24192 0.654913,0.49858 0.92927,0.76997 0.271345,0.27435 0.694693,0.34515 1.269954,0.2124 0.575262,-0.13275 1.194776,-0.31715 1.858539,-0.55313 0.66376,-0.23599 1.32018,-0.5015 1.96916,-0.79652 0.64903,-0.29502 1.04437,-0.48234 1.18597,-0.56199 0.13864,-0.0826 0.21241,-0.12682 0.22126,-0.13275 l 0.009,-0.0133 0.0443,-0.0221 0.0442,-0.0221 0.0443,-0.0222 0.0443,-0.0222 0.009,-0.0133 0.0133,-0.009 0.0133,-0.009 0.009,-0.0133 0.0442,-0.0133 0.0443,-0.009 -0.009,0.0664 -0.0133,0.0664 -0.0221,0.0664 -0.0221,0.0664 -0.0221,0.0442 -0.0221,0.0443 -0.0221,0.0664 c -0.0147,0.0443 -0.0295,0.10324 -0.0443,0.17701 -0.0147,0.0738 -0.15488,0.36874 -0.42039,0.88502 -0.2655,0.51627 -0.59738,1.03989 -0.99564,1.57091 -0.39826,0.53101 -0.75519,0.93218 -1.07083,1.20362 -0.3186,0.27436 -0.52955,0.46609 -0.63283,0.57526 -0.10324,0.11209 -0.2286,0.21533 -0.37613,0.30975 l -0.22126,0.14603 -0.0443,0.0222 -0.04425,0.0222 -0.0088,0.0133 -0.01332,0.009 -0.01326,0.009 -0.0089,0.0133 -0.04425,0.0222 -0.04425,0.0222 -0.0088,0.0133 -0.01332,0.009 -0.01326,0.009 -0.0088,0.0133 -0.0088,0.0133 -0.01332,0.009 -0.01326,0.009 -0.0088,0.0133 h 0.221255 l 1.239024,-0.2655 c 0.82603,-0.17701 1.61516,-0.39087 2.36742,-0.64164 l 1.19478,-0.39826 0.13275,-0.0442 0.0664,-0.0222 0.0443,-0.0222 0.0443,-0.0222 0.0442,-0.0222 0.0443,-0.0222 0.0885,-0.0133 0.0885,-0.009 v 0.0885 l -0.0221,0.009 -0.0221,0.0133 -0.009,0.0133 -0.0133,0.009 -0.0133,0.009 -0.009,0.0133 -0.009,0.0133 -0.0133,0.009 -0.0133,0.009 -0.009,0.0133 -0.009,0.0132 -0.0133,0.009 -0.0221,0.0442 -0.0221,0.0442 -0.0133,0.009 c -0.006,0.009 -0.1932,0.25958 -0.56199,0.75226 -0.36874,0.49561 -0.56787,0.74634 -0.59738,0.75227 -0.0295,0.009 -0.0708,0.0531 -0.1239,0.13275 -0.0501,0.0826 -0.36286,0.41154 -0.93812,0.9868 -0.57526,0.57526 -1.13867,1.08707 -1.69034,1.53551 -0.5546,0.45135 -0.83489,1.00595 -0.84077,1.66383 -0.009,0.65491 -0.0428,1.39541 -0.10182,2.22139 -0.059,0.82603 -0.16962,1.7184 -0.331885,2.67718 -0.162223,0.95879 -0.412993,2.04294 -0.752265,3.25244 -0.339226,1.20951 -0.752265,2.38955 -1.239024,3.54007 -0.486761,1.15053 -0.995645,2.18304 -1.526657,3.09757 -0.53101,0.91453 -1.01777,1.68893 -1.460279,2.32317 -0.442507,0.63425 -0.892367,1.23164 -1.349657,1.79216 -0.45724,0.56053 -1.03542,1.19186 -1.73459,1.89394 -0.70212,0.69917 -1.0856,1.08269 -1.15052,1.15053 -0.0678,0.0649 -0.35693,0.30683 -0.86736,0.72571 -0.50738,0.42184 -1.05317,0.84368 -1.63728,1.26558 -0.58115,0.41892 -1.11513,0.7685 -1.60189,1.04874 -0.48676,0.28024 -1.07379,0.60031 -1.76118,0.96025 -0.68439,0.36286 -1.42488,0.69916 -2.2214,1.00892 -0.79651,0.30975 -1.63728,0.59738 -2.5223,0.86289 -0.88502,0.2655 -1.74052,0.47202 -2.56655,0.61951 -0.82599,0.14749 -1.76265,0.2729 -2.80993,0.37613 l -1.57091,0.15488 v 0.0221 h -2.87631 v -0.0221 l -0.37613,-0.0221 c -0.25073,-0.0148 -0.45725,-0.0295 -0.61952,-0.0442 -0.16222,-0.0147 -0.77439,-0.0959 -1.83641,-0.24338 -1.06202,-0.14749 -1.8954,-0.29502 -2.50018,-0.44251 -0.60473,-0.14749 -1.50453,-0.42777 -2.6993,-0.84077 -1.19477,-0.41299 -2.216967,-0.83046 -3.066587,-1.2523 -0.84665,-0.41892 -1.37766,-0.68443 -1.59303,-0.79652 -0.21241,-0.10917 -0.45136,-0.24484 -0.71687,-0.40711 l -0.39826,-0.24337 -0.009,-0.0132 -0.0134,-0.009 -0.0133,-0.009 -0.009,-0.0132 -0.0443,-0.0222 -0.0443,-0.0222 -0.009,-0.0132 -0.0134,-0.009 -0.0133,-0.009 -0.009,-0.0132 -0.009,-0.0133 -0.0134,-0.009 h -0.0222 v -0.0885 l 0.0443,0.009 0.0443,0.0132 0.19913,0.0221 c 0.13276,0.0148 0.49415,0.0369 1.08415,0.0664 0.59004,0.0295 1.2169,0.0295 1.88067,0 0.66376,-0.0295 1.342297,-0.0959 2.035527,-0.19913 0.69329,-0.10323 1.51193,-0.28024 2.45593,-0.53101 0.94405,-0.25077 1.81136,-0.54871 2.602,-0.89386 0.78766,-0.34808 1.34814,-0.6077 1.68153,-0.77882 0.33038,-0.16816 0.83484,-0.48087 1.51334,-0.93812 l 1.01777,-0.68589 0.009,-0.0133 0.0133,-0.009 0.0133,-0.009 0.009,-0.0133 0.009,-0.0132 0.0133,-0.009 0.0133,-0.009 0.009,-0.0132 0.0443,-0.0133 0.0442,-0.009 0.009,-0.0443 0.0133,-0.0442 0.0133,-0.009 0.009,-0.0132 -0.35401,-0.0221 c -0.23599,-0.0148 -0.46463,-0.0295 -0.68589,-0.0443 -0.22125,-0.0147 -0.56787,-0.0811 -1.03989,-0.19913 -0.47198,-0.11802 -0.98087,-0.29502 -1.52666,-0.53101 -0.54574,-0.23599 -1.07675,-0.51627 -1.59303,-0.84077 -0.51623,-0.32448 -0.88944,-0.59446 -1.11955,-0.80979 -0.22714,-0.21245 -0.52216,-0.51331 -0.88502,-0.90272 -0.35989,-0.39232 -0.67261,-0.79505 -0.93811,-1.20804 -0.26551,-0.413 -0.5192,-0.88949 -0.76108,-1.42931 l -0.36732,-0.80536 -0.0221,-0.0664 -0.0221,-0.0664 -0.0132,-0.0443 -0.009,-0.0442 0.0664,0.009 0.0664,0.0133 0.48676,0.0664 c 0.32453,0.0442 0.83342,0.059 1.52665,0.0442 0.69328,-0.0147 1.17265,-0.0442 1.43816,-0.0885 0.2655,-0.0442 0.42777,-0.0738 0.48676,-0.0885 l 0.0885,-0.0221 0.11063,-0.0222 0.11062,-0.0221 0.009,-0.0133 0.0133,-0.009 0.0134,-0.009 0.009,-0.0133 -0.0885,-0.0221 -0.0885,-0.0221 -0.0885,-0.0222 -0.0885,-0.0221 -0.0885,-0.0222 c -0.059,-0.0147 -0.16222,-0.0443 -0.30975,-0.0885 -0.14749,-0.0443 -0.54575,-0.20652 -1.19478,-0.48676 -0.64898,-0.28024 -1.16526,-0.55313 -1.54878,-0.81864 a 10.695441,10.695441 0 0 1 -1.09742,-0.87174 c -0.34516,-0.31861 -0.724207,-0.72868 -1.137247,-1.23018 -0.41299,-0.5015 -0.78174,-1.08415 -1.10627,-1.74791 -0.32449,-0.66376 -0.56787,-1.29801 -0.73014,-1.90279 a 10.272536,10.272536 0 0 1 -0.31856,-1.83641 l -0.0797,-0.92927 0.0443,0.009 0.0443,0.0132 0.0443,0.0222 0.0443,0.0222 0.0442,0.0221 0.0443,0.0222 0.68588,0.30976 c 0.45729,0.20652 1.02516,0.38352 1.70366,0.53101 0.678537,0.14749 1.084147,0.22865 1.216897,0.24338 l 0.19913,0.0222 h 0.39826 l -0.009,-0.0133 -0.0134,-0.009 -0.0132,-0.009 -0.009,-0.0133 -0.009,-0.0132 -0.0134,-0.009 -0.0132,-0.009 -0.009,-0.0133 -0.0443,-0.0221 -0.0443,-0.0221 -0.009,-0.0133 -0.0134,-0.009 -0.0132,-0.009 -0.009,-0.0133 -0.0443,-0.0222 -0.0443,-0.0222 -0.009,-0.0133 c -0.009,-0.006 -0.13572,-0.10031 -0.3806,-0.2832 -0.24192,-0.18585 -0.49561,-0.42627 -0.76112,-0.72129 -0.2655,-0.29502 -0.531007,-0.60478 -0.796507,-0.92927 a 7.1756368,7.1756368 0 0 1 -0.70802,-1.0399 c -0.20648,-0.36874 -0.42481,-0.83784 -0.65492,-1.40718 -0.22713,-0.56641 -0.39971,-1.13724 -0.51773,-1.7125 -0.11797,-0.57527 -0.18435,-1.14314 -0.19913,-1.70366 -0.0147,-0.56053 0,-1.0399 0.0443,-1.43816 0.0443,-0.39826 0.13275,-0.84815 0.26551,-1.34965 0.13275,-0.5015 0.32453,-1.03251 0.57526,-1.59303 l 0.37613,-0.84077 0.0221,-0.0664 0.0222,-0.0664 0.0134,-0.009 0.009,-0.0133 0.009,-0.0133 0.0133,-0.009 0.0133,0.009 0.009,0.0133 0.009,0.0133 0.0133,0.009 0.0134,0.009 0.009,0.0133 0.009,0.0133 0.0133,0.009 0.0221,0.0443 0.0221,0.0442 0.0134,0.009 0.009,0.0133 0.59739,0.66376 c 0.39826,0.44251 0.870277,0.93666 1.416027,1.4824 0.54579,0.54575 0.84816,0.82896 0.90714,0.84962 0.059,0.0236 0.13275,0.0914 0.22126,0.20356 0.0885,0.10916 0.38352,0.37024 0.88501,0.78324 0.50154,0.41299 1.15792,0.8924 1.96917,1.43815 0.8113,0.54575 1.71105,1.08415 2.69931,1.61516 0.98829,0.53101 2.05032,1.01038 3.18606,1.43815 1.13579,0.42778 1.9323,0.70802 2.38955,0.84077 0.45729,0.13275 1.23902,0.30237 2.3453,0.50888 1.10627,0.20652 1.93969,0.33928 2.50017,0.39826 0.56053,0.059 0.94405,0.0929 1.15052,0.10178 l 0.30976,0.009 -0.009,-0.0664 -0.0133,-0.0664 -0.0885,-0.55314 c -0.059,-0.36874 -0.0885,-0.88502 -0.0885,-1.54878 0,-0.66377 0.0516,-1.27588 0.15488,-1.83641 0.10328,-0.56053 0.25816,-1.1284 0.46463,-1.70366 0.20652,-0.57526 0.40862,-1.03698 0.60624,-1.38505 0.20064,-0.34516 0.46317,-0.73899 0.78767,-1.1815 0.32453,-0.44251 0.74492,-0.89976 1.26115,-1.37178 0.51627,-0.47202 1.10627,-0.89241 1.77003,-1.26115 0.66377,-0.36874 1.27593,-0.64903 1.83642,-0.84077 0.56052,-0.19173 1.03255,-0.31714 1.41603,-0.37613 0.38352,-0.059 0.57526,-0.0929 0.57526,-0.10178 z"
         inkscape:connector-curvature="0"
         style="fill:#5da8dc;stroke:#5da8dc;stroke-width:0.02212545" />
      <path
         inkscape:connector-curvature="0"
         id="path887"
         d="m 71.277323,63.107703 -25.361877,3.30807 z"
         style="fill:none;fill-rule:evenodd;stroke:#000000;stroke-width:2.06288075;stroke-linecap:butt;stroke-linejoin:miter;stroke-miterlimit:4;stroke-dasharray:none;stroke-opacity:1" />
      <path
         inkscape:connector-curvature="0"
         id="path895"
         d="m 71.277323,63.107703 -2.84206,-16.91992 2.84206,16.91992"
         style="fill:none;fill-rule:evenodd;stroke:#000000;stroke-width:2.06288075;stroke-linecap:butt;stroke-linejoin:miter;stroke-miterlimit:4;stroke-dasharray:none;stroke-opacity:1" />
      <circle
         r="2.2053807"
         cy="63.438534"
         cx="71.828674"
         id="path891"
         style="opacity:0.98999999;fill:#ffffff;fill-opacity:1;stroke:#000000;stroke-width:2.06288075;stroke-linecap:round;stroke-linejoin:bevel;stroke-miterlimit:4;stroke-dasharray:none;stroke-opacity:1;paint-order:stroke fill markers" />
    </g>
    <rect
       style="opacity:0.98999999;fill:#ffffff;fill-opacity:1;stroke:none;stroke-width:19.34375381;stroke-linecap:round;stroke-linejoin:bevel;stroke-miterlimit:4;stroke-dasharray:none;stroke-opacity:1;paint-order:stroke fill markers"
       id="rect899"
       width="317.5"
       height="166.15834"
       x="-209.81458"
       y="111.2625"
       transform="scale(-1,1)"
       inkscape:export-xdpi="90"
       inkscape:export-ydpi="90" />
    <g
       id="g953"
       transform="matrix(3.2218385,0,0,3.2218385,55.762297,-433.19121)">
      <g
         id="g931">
        <rect
           inkscape:export-ydpi="90"
           inkscape:export-xdpi="90"
           y="174.61934"
           x="-45.238697"
           height="40.310879"
           width="40.310879"
           id="rect903"
           style="opacity:0.98999999;fill:#ffffff;fill-opacity:1;stroke:none;stroke-width:6.00169039;stroke-linecap:round;stroke-linejoin:bevel;stroke-miterlimit:4;stroke-dasharray:none;stroke-opacity:1;paint-order:stroke fill markers" />
        <circle
           r="16.538168"
           cy="194.77478"
           cx="-25.083256"
           id="circle905"
           style="opacity:0.98999999;fill:#ffffff;fill-opacity:1;stroke:#5da8dc;stroke-width:2.44578028;stroke-linecap:round;stroke-linejoin:bevel;stroke-miterlimit:4;stroke-dasharray:none;stroke-opacity:1;paint-order:stroke fill markers" />
        <path
           id="path907"
           d="m -14.866187,187.87881 v -0.005 h 1.364078 l 0.498415,0.0997 c 0.33228,0.0647 0.633954,0.14953 0.905009,0.25446 0.271084,0.10492 0.533407,0.22735 0.786969,0.36725 0.253588,0.13989 0.483565,0.28244 0.689935,0.42758 0.204611,0.14341 0.388237,0.29556 0.550877,0.45644 0.1608557,0.16264 0.4118193,0.20461 0.7528381,0.12592 0.3410193,-0.0787 0.7082716,-0.18801 1.1017549,-0.3279 0.3934816,-0.1399 0.782612,-0.2973 1.1673319,-0.47219 0.3847495,-0.17489 0.6191098,-0.28593 0.7030513,-0.33315 0.082187,-0.049 0.1259182,-0.0752 0.1311645,-0.0787 l 0.00534,-0.008 0.026261,-0.0131 0.026202,-0.0131 0.026261,-0.0132 0.026261,-0.0132 0.00534,-0.008 0.00788,-0.005 0.00788,-0.005 0.00534,-0.008 0.026202,-0.008 0.026261,-0.005 -0.00534,0.0394 -0.00788,0.0394 -0.013101,0.0394 -0.013101,0.0394 -0.013101,0.0262 -0.013101,0.0263 -0.013101,0.0394 c -0.00871,0.0263 -0.017488,0.0612 -0.026261,0.10493 -0.00871,0.0438 -0.091814,0.21859 -0.2492101,0.52465 -0.1573903,0.30604 -0.3541311,0.61645 -0.5902224,0.93124 -0.2360913,0.31479 -0.447682,0.55261 -0.6347956,0.71352 -0.1888683,0.16264 -0.3139209,0.2763 -0.375146,0.34102 -0.061201,0.0664 -0.1355157,0.12764 -0.2229725,0.18362 l -0.1311645,0.0866 -0.026261,0.0132 -0.026232,0.0132 -0.00522,0.008 -0.0079,0.005 -0.00786,0.005 -0.00528,0.008 -0.026232,0.0132 -0.026232,0.0132 -0.00522,0.008 -0.0079,0.005 -0.00786,0.005 -0.00522,0.008 -0.00522,0.008 -0.0079,0.005 -0.00786,0.005 -0.00522,0.008 h 0.1311615 l 0.7345021,-0.15739 c 0.4896764,-0.10493 0.9574782,-0.23171 1.4034232,-0.38037 l 0.708274,-0.23609 0.078695,-0.0262 0.039362,-0.0132 0.026261,-0.0132 0.026261,-0.0132 0.026202,-0.0132 0.026261,-0.0132 0.052463,-0.008 0.052463,-0.005 v 0.0525 l -0.013101,0.005 -0.013101,0.008 -0.00534,0.008 -0.00788,0.005 -0.00788,0.005 -0.00534,0.008 -0.00534,0.008 -0.00788,0.005 -0.00788,0.005 -0.00534,0.008 -0.00534,0.008 -0.00788,0.005 -0.013101,0.0262 -0.013101,0.0262 -0.00788,0.005 c -0.00356,0.005 -0.1145303,0.15388 -0.3331516,0.44595 -0.2185917,0.2938 -0.3366373,0.44243 -0.3541311,0.44595 -0.017488,0.005 -0.041971,0.0315 -0.073449,0.0787 -0.0297,0.049 -0.2151059,0.24397 -0.5561241,0.58498 -0.3410181,0.34102 -0.6750115,0.64443 -1.0020454,0.91027 -0.3287708,0.26756 -0.4949286,0.59633 -0.4984143,0.98633 -0.00534,0.38823 -0.025372,0.8272 -0.06036,1.31685 -0.034976,0.48968 -0.100552,1.01868 -0.1967438,1.58705 -0.096167,0.56838 -0.2448251,1.21107 -0.445948,1.92807 -0.2010955,0.71701 -0.4459479,1.41654 -0.7345021,2.09858 -0.2885553,0.68204 -0.590226,1.29412 -0.905013,1.83626 -0.314787,0.54214 -0.603342,1.00121 -0.865664,1.37719 -0.262321,0.37599 -0.529001,0.73013 -0.800086,1.06241 -0.271055,0.33228 -0.613804,0.70654 -1.028277,1.12274 -0.416222,0.41447 -0.643551,0.64182 -0.682037,0.68204 -0.04019,0.0385 -0.21159,0.18189 -0.514177,0.43021 -0.300778,0.25007 -0.624326,0.50014 -0.970591,0.75024 -0.344509,0.24834 -0.661057,0.45557 -0.949611,0.6217 -0.288555,0.16613 -0.63655,0.35587 -1.044039,0.56924 -0.405711,0.21511 -0.844679,0.41447 -1.316862,0.5981 -0.472176,0.18362 -0.970591,0.35413 -1.495237,0.51153 -0.524646,0.15739 -1.031792,0.27981 -1.521469,0.36725 -0.489652,0.0874 -1.044911,0.16177 -1.665746,0.22297 l -0.931246,0.0918 v 0.0131 h -1.705097 v -0.0131 l -0.222973,-0.0131 c -0.148634,-0.009 -0.271061,-0.0175 -0.367255,-0.0262 -0.09617,-0.009 -0.459064,-0.0568 -1.088637,-0.14428 -0.629573,-0.0874 -1.123607,-0.17489 -1.482124,-0.26232 -0.358489,-0.0874 -0.891896,-0.25359 -1.600164,-0.49841 -0.708269,-0.24483 -1.314234,-0.49231 -1.817895,-0.74238 -0.5019,-0.24834 -0.816686,-0.40573 -0.944359,-0.47218 -0.125918,-0.0647 -0.267569,-0.14514 -0.424966,-0.24134 l -0.236091,-0.14427 -0.0053,-0.008 -0.0079,-0.005 -0.0079,-0.005 -0.0053,-0.008 -0.02626,-0.0132 -0.02626,-0.0132 -0.0053,-0.008 -0.0079,-0.005 -0.0079,-0.005 -0.0053,-0.008 -0.0053,-0.008 -0.0079,-0.005 h -0.01316 v -0.0525 l 0.02626,0.005 0.02626,0.008 0.118046,0.0131 c 0.0787,0.009 0.292935,0.0219 0.642691,0.0394 0.34978,0.0175 0.721387,0.0175 1.114875,0 0.393481,-0.0175 0.795723,-0.0568 1.206674,-0.11805 0.410987,-0.0612 0.896283,-0.16612 1.455893,-0.31478 0.559639,-0.14866 1.073787,-0.32528 1.542484,-0.52989 0.46693,-0.20634 0.799187,-0.36025 0.996823,-0.46169 0.195851,-0.0997 0.494899,-0.28506 0.897118,-0.55612 l 0.603341,-0.4066 0.0053,-0.008 0.0079,-0.005 0.0079,-0.005 0.0053,-0.008 0.0053,-0.008 0.0079,-0.005 0.0079,-0.005 0.0053,-0.008 0.02626,-0.008 0.0262,-0.005 0.0053,-0.0263 0.0079,-0.0262 0.0079,-0.005 0.0053,-0.008 -0.209859,-0.0131 c -0.139897,-0.009 -0.275436,-0.0175 -0.406601,-0.0263 -0.131158,-0.009 -0.336637,-0.0481 -0.616454,-0.11804 -0.279793,-0.07 -0.581466,-0.17489 -0.905015,-0.31479 -0.323518,-0.1399 -0.638304,-0.30605 -0.944359,-0.49842 -0.306025,-0.19235 -0.527266,-0.3524 -0.663677,-0.48004 -0.13465,-0.12595 -0.30954,-0.3043 -0.524646,-0.53514 -0.213345,-0.23257 -0.398728,-0.47131 -0.556118,-0.71614 -0.157397,-0.24483 -0.307786,-0.52729 -0.451174,-0.8473 l -0.21775,-0.47743 -0.0131,-0.0394 -0.0131,-0.0394 -0.0078,-0.0263 -0.0053,-0.0262 0.03936,0.005 0.03936,0.008 0.288554,0.0394 c 0.192384,0.0262 0.494058,0.035 0.905009,0.0262 0.410981,-0.009 0.695155,-0.0262 0.852552,-0.0525 0.15739,-0.0262 0.253585,-0.0438 0.288554,-0.0525 l 0.05246,-0.0131 0.06558,-0.0132 0.06558,-0.0131 0.0053,-0.008 0.0079,-0.005 0.0079,-0.005 0.0053,-0.008 -0.05246,-0.0131 -0.05246,-0.0131 -0.05246,-0.0132 -0.05246,-0.0131 -0.05246,-0.0132 c -0.03498,-0.009 -0.09617,-0.0263 -0.183622,-0.0525 -0.08743,-0.0263 -0.323525,-0.12242 -0.708274,-0.28855 -0.38472,-0.16613 -0.690775,-0.3279 -0.918128,-0.4853 a 6.3403324,6.3403324 0 0 1 -0.650558,-0.51677 c -0.204613,-0.18887 -0.429315,-0.43197 -0.674168,-0.72926 -0.244824,-0.29729 -0.463421,-0.64269 -0.655805,-1.03617 -0.19236,-0.39348 -0.336637,-0.76947 -0.432832,-1.12799 a 6.0896314,6.0896314 0 0 1 -0.188844,-1.08864 l -0.04725,-0.55087 0.02626,0.005 0.02626,0.008 0.02626,0.0132 0.02626,0.0132 0.0262,0.0131 0.02626,0.0132 0.406594,0.18363 c 0.271085,0.12242 0.607722,0.22735 1.009942,0.31478 0.402241,0.0874 0.64269,0.13555 0.721385,0.14428 l 0.118045,0.0132 h 0.236092 l -0.0053,-0.008 -0.0079,-0.005 -0.0078,-0.005 -0.0053,-0.008 -0.0053,-0.008 -0.0079,-0.005 -0.0078,-0.005 -0.0053,-0.008 -0.02626,-0.0131 -0.02626,-0.0131 -0.0053,-0.008 -0.0079,-0.005 -0.0078,-0.005 -0.0053,-0.008 -0.02626,-0.0132 -0.02626,-0.0132 -0.0053,-0.008 c -0.0053,-0.004 -0.08046,-0.0595 -0.225623,-0.16789 -0.143412,-0.11017 -0.293801,-0.25269 -0.451197,-0.42758 -0.15739,-0.17489 -0.314785,-0.35852 -0.472175,-0.55088 a 4.2537678,4.2537678 0 0 1 -0.419719,-0.61646 c -0.122403,-0.21859 -0.251831,-0.49668 -0.388241,-0.83419 -0.134645,-0.33577 -0.236951,-0.67416 -0.306914,-1.01518 -0.06993,-0.34102 -0.109284,-0.67766 -0.118046,-1.00994 -0.0087,-0.33229 0,-0.61646 0.02626,-0.85255 0.02626,-0.23609 0.07869,-0.50279 0.157396,-0.80008 0.0787,-0.2973 0.192384,-0.61208 0.341019,-0.94436 l 0.222972,-0.49842 0.0131,-0.0394 0.01316,-0.0394 0.0079,-0.005 0.0053,-0.008 0.0053,-0.008 0.0079,-0.005 0.0079,0.005 0.0053,0.008 0.0053,0.008 0.0079,0.005 0.0079,0.005 0.0053,0.008 0.0053,0.008 0.0079,0.005 0.0131,0.0263 0.0131,0.0262 0.0079,0.005 0.0053,0.008 0.354137,0.39348 c 0.236091,0.26232 0.515906,0.55526 0.83943,0.87878 0.323548,0.32352 0.502795,0.49141 0.537759,0.50366 0.03498,0.014 0.0787,0.0542 0.131165,0.12067 0.05246,0.0647 0.227353,0.21948 0.52464,0.46431 0.297316,0.24482 0.686423,0.52902 1.167338,0.85255 0.480944,0.32352 1.014322,0.64269 1.60017,0.95747 0.585865,0.31479 1.215444,0.59896 1.888718,0.85255 0.673305,0.25359 1.145481,0.41972 1.416542,0.49841 0.271085,0.0787 0.7345,0.17925 1.390311,0.30167 0.655804,0.12243 1.149862,0.20113 1.482118,0.23609 0.332286,0.035 0.559639,0.0551 0.682036,0.0603 l 0.183628,0.005 -0.0053,-0.0394 -0.0079,-0.0394 -0.05246,-0.32791 c -0.03498,-0.21859 -0.05246,-0.52464 -0.05246,-0.91812 0,-0.39349 0.03059,-0.75635 0.09181,-1.08864 0.06123,-0.33229 0.153039,-0.66892 0.275436,-1.00994 0.122426,-0.34102 0.242232,-0.61473 0.359383,-0.82107 0.118941,-0.20461 0.27457,-0.43808 0.466936,-0.7004 0.192384,-0.26232 0.441594,-0.53338 0.747619,-0.8132 0.306048,-0.27982 0.655805,-0.52903 1.049286,-0.74762 0.393487,-0.21859 0.756379,-0.38475 1.088642,-0.49841 0.33228,-0.11366 0.612103,-0.18801 0.839432,-0.22298 0.227354,-0.035 0.341018,-0.0551 0.341018,-0.0603 z"
           inkscape:connector-curvature="0"
           style="fill:#5da8dc;stroke:#5da8dc;stroke-width:0.01311612" />
        <path
           inkscape:connector-curvature="0"
           id="path909"
           d="M -25.410101,194.57865 -40.4448,196.5397 Z"
           style="fill:none;fill-rule:evenodd;stroke:#000000;stroke-width:1.22289014;stroke-linecap:butt;stroke-linejoin:miter;stroke-miterlimit:4;stroke-dasharray:none;stroke-opacity:1" />
        <path
           inkscape:connector-curvature="0"
           id="path911"
           d="m -25.410101,194.57865 -1.684793,-10.03024 1.684793,10.03024"
           style="fill:none;fill-rule:evenodd;stroke:#000000;stroke-width:1.22289014;stroke-linecap:butt;stroke-linejoin:miter;stroke-miterlimit:4;stroke-dasharray:none;stroke-opacity:1" />
        <circle
           r="1.3073652"
           cy="194.77478"
           cx="-25.083256"
           id="circle913"
           style="opacity:0.98999999;fill:#ffffff;fill-opacity:1;stroke:#000000;stroke-width:1.22289014;stroke-linecap:round;stroke-linejoin:bevel;stroke-miterlimit:4;stroke-dasharray:none;stroke-opacity:1;paint-order:stroke fill markers" />
      </g>
      <text
         id="text917"
         y="184.3026"
         x="1.1157808"
         style="font-style:normal;font-weight:normal;font-size:13.54597187px;line-height:8.4662323px;font-family:sans-serif;letter-spacing:0px;word-spacing:0px;fill:#000000;fill-opacity:1;stroke:none;stroke-width:0.3386493px;stroke-linecap:butt;stroke-linejoin:miter;stroke-opacity:1"
         xml:space="preserve"><tspan
           style="font-style:normal;font-variant:normal;font-weight:bold;font-stretch:normal;font-size:13.54597187px;line-height:14.90056992px;font-family:Roboto;-inkscape-font-specification:'Roboto, Bold';font-variant-ligatures:normal;font-variant-caps:normal;font-variant-numeric:normal;font-feature-settings:normal;text-align:start;writing-mode:lr-tb;text-anchor:start;stroke-width:0.3386493px"
           y="184.3026"
           x="1.1157808"
           id="tspan915"
           sodipodi:role="line">apress</tspan><tspan
           id="tspan919"
           style="font-style:normal;font-variant:normal;font-weight:bold;font-stretch:normal;font-size:9.03064823px;line-height:5.28292942px;font-family:Roboto;-inkscape-font-specification:'Roboto, Bold';font-variant-ligatures:normal;font-variant-caps:normal;font-variant-numeric:normal;font-feature-settings:normal;text-align:start;writing-mode:lr-tb;text-anchor:start;stroke-width:0.3386493px"
           y="195.51521"
           x="1.1157808"
           sodipodi:role="line">A simple</tspan><tspan
           id="tspan921"
           style="font-style:normal;font-variant:normal;font-weight:bold;font-stretch:normal;font-size:9.03064823px;line-height:5.28292942px;font-family:Roboto;-inkscape-font-specification:'Roboto, Bold';font-variant-ligatures:normal;font-variant-caps:normal;font-variant-numeric:normal;font-feature-settings:normal;text-align:start;writing-mode:lr-tb;text-anchor:start;stroke-width:0.3386493px"
           y="203.98145"
           x="1.1157808"
           sodipodi:role="line">Twitter</tspan><tspan
           id="tspan923"
           style="font-style:normal;font-variant:normal;font-weight:bold;font-stretch:normal;font-size:9.03064823px;line-height:5.28292942px;font-family:Roboto;-inkscape-font-specification:'Roboto, Bold';font-variant-ligatures:normal;font-variant-caps:normal;font-variant-numeric:normal;font-feature-settings:normal;text-align:start;writing-mode:lr-tb;text-anchor:start;stroke-width:0.3386493px"
           y="212.44768"
           x="1.1157808"
           sodipodi:role="line">scheduler.</tspan></text>
    </g>
  </g>
</svg>
